<?xml version="1.0" encoding="utf-8"?>
<!-- Generator: Adobe Illustrator 21.0.0, SVG Export Plug-In . SVG Version: 6.00 Build 0)  -->
<svg version="1.1" xmlns="http://www.w3.org/2000/svg" xmlns:xlink="http://www.w3.org/1999/xlink" x="0px" y="0px"
	 viewBox="0 0 551.9 17.2" style="enable-background:new 0 0 551.9 17.2;" xml:space="preserve">
<style type="text/css">
	.st0{display:none;}
	.st1{fill:#FFFFFF;}
</style>
<g id="图层_1" class="st0">
	<title>copyright</title>
</g>
<g id="图层_2">
	<g>
		<path class="st1" d="M27.1,5.2c1.5,0.3,1.8,0.6,1.8,1.2c0,0.3-0.2,0.5-0.4,0.5c-0.1,0-0.2,0-0.3-0.3c-0.2-0.5-0.4-0.8-1.2-1.3
			L27.1,5.2z M30.5,4.1l-1.3,4.7C29.1,9.2,29,9.7,29,10.2c0,0.5,0.1,1.1,0.2,1.7c0,0.1,0,0.2,0,0.2c0,0.4-0.2,0.6-0.4,0.6
			c-0.2,0-0.4-0.2-0.4-0.5c0-0.1,0-0.2,0-0.3c0.1-0.7,0.2-1.2,0.2-1.5c0-0.5-0.2-0.6-0.5-0.7c-0.3-0.1-0.6-0.1-1-0.1V9.4
			c1.2,0,1.5-0.1,1.7-0.7L30.4,4L30.5,4.1z M27.8,2.5c1.4,0.4,2,0.6,2,1.2c0,0.3-0.1,0.6-0.3,0.6c-0.1,0-0.2,0-0.3-0.3
			c-0.2-0.4-0.5-0.8-1.4-1.3L27.8,2.5z M38.3,11.9c-0.5,0-0.8,0.1-1,0.4c0,0-0.1,0.1-0.1,0.1c0,0-0.1,0-0.1,0
			c-1.8-1.2-2.5-2.4-3.1-3.8c-0.3,0.3-0.7,0.6-1.1,0.9V12l1.6-0.7l0.1,0.2c-1.4,0.8-1.8,1.1-2.1,1.4c0,0-0.1,0.1-0.1,0.1
			c0,0,0,0-0.1,0l-0.3-0.5c0.4-0.2,0.4-0.3,0.4-0.5V9.8c-0.9,0.7-1.8,1.4-2.7,1.8l-0.1-0.2c1.3-0.9,3-2.3,4.3-3.8l0.6,0.5
			c0,0,0,0,0,0c0,0,0,0-0.1,0c-0.1,0-0.2,0-0.3,0.1c0.2,0.5,0.5,1,0.8,1.4c0.6-0.5,1.2-0.9,1.6-1.4L37,8.9c0,0,0,0,0,0.1
			C37.1,9,37,9,37,9c-0.1,0-0.2,0-1.9,0.9c0.8,0.9,1.8,1.7,3.2,1.8V11.9z M33.1,4.6c0,0,0.1,0.1,0.1,0.1c0,0,0,0-0.1,0
			c-0.2,0-0.3,0.1-0.5,0.3c-0.8,0.8-1.4,1.2-2.2,1.9l-0.1-0.1c0.8-0.8,1.8-2,2.2-2.7L33.1,4.6z M37.9,3.6C38,3.6,38,3.7,38,3.7
			c0,0-0.1,0.1-0.2,0.1h-6.4c-0.3,0-0.6,0-0.8,0.1l-0.3-0.4c0.3,0,0.6,0,0.9,0h5.5l0.5-0.6L37.9,3.6z M34.7,5.9
			c1.5,0.9,1.7,1.2,1.7,1.5c0,0.3-0.1,0.5-0.4,0.5c-0.1,0-0.2-0.1-0.3-0.3c0-0.1,0-0.2-0.1-0.3l-1.3,0.1C33,7.5,32.2,7.7,32,7.9
			c0,0,0,0,0,0c0,0-0.1,0-0.1-0.1l-0.3-0.6C32,7.1,32.2,7,32.5,6.7c0.6-0.6,1-1.2,1.5-1.9l0.5,0.5c0.1,0,0.1,0.1,0.1,0.1
			c0,0,0,0-0.1,0.1c-0.2,0-0.3,0.1-0.5,0.4c-0.4,0.4-1,0.9-1.7,1.4L35.6,7c-0.2-0.3-0.5-0.7-0.9-1L34.7,5.9z M33.1,1.9
			c1.1,0.4,1.6,0.7,1.6,1.2c0,0.3-0.2,0.5-0.3,0.5c-0.1,0-0.3-0.1-0.4-0.4C33.9,2.8,33.6,2.4,33,2L33.1,1.9z M35.4,4.2
			c0.9,0.4,2.1,1.2,2.1,2c0,0.3-0.2,0.5-0.3,0.5c-0.1,0-0.2,0-0.3-0.4c-0.3-0.7-0.8-1.4-1.5-1.9L35.4,4.2z"/>
		<path class="st1" d="M39.1,5.2c1.5,0.3,1.8,0.6,1.8,1.2c0,0.3-0.2,0.5-0.4,0.5c-0.1,0-0.2,0-0.3-0.3c-0.2-0.5-0.4-0.8-1.2-1.3
			L39.1,5.2z M42.5,4.1l-1.3,4.7C41.1,9.2,41,9.7,41,10.2c0,0.5,0.1,1.1,0.2,1.7c0,0.1,0,0.2,0,0.2c0,0.4-0.2,0.6-0.4,0.6
			c-0.2,0-0.4-0.2-0.4-0.5c0-0.1,0-0.2,0-0.3c0.1-0.7,0.2-1.2,0.2-1.5c0-0.5-0.2-0.6-0.5-0.7c-0.3-0.1-0.6-0.1-1-0.1V9.4
			c1.2,0,1.5-0.1,1.7-0.7L42.4,4L42.5,4.1z M39.8,2.5c1.4,0.4,2,0.6,2,1.2c0,0.3-0.1,0.6-0.3,0.6c-0.1,0-0.2,0-0.3-0.3
			c-0.2-0.4-0.5-0.8-1.4-1.3L39.8,2.5z M50.3,11.9c-0.5,0-0.8,0.1-1,0.4c0,0-0.1,0.1-0.1,0.1c0,0-0.1,0-0.1,0
			c-1.8-1.2-2.5-2.4-3.1-3.8c-0.3,0.3-0.7,0.6-1.1,0.9V12l1.6-0.7l0.1,0.2c-1.4,0.8-1.8,1.1-2.1,1.4c0,0-0.1,0.1-0.1,0.1
			c0,0,0,0-0.1,0l-0.3-0.5c0.4-0.2,0.4-0.3,0.4-0.5V9.8c-0.9,0.7-1.8,1.4-2.7,1.8l-0.1-0.2c1.3-0.9,3-2.3,4.3-3.8l0.6,0.5
			c0,0,0,0,0,0c0,0,0,0-0.1,0c-0.1,0-0.2,0-0.3,0.1c0.2,0.5,0.5,1,0.8,1.4c0.6-0.5,1.2-0.9,1.6-1.4L49,8.9c0,0,0,0,0,0.1
			C49.1,9,49,9,49,9c-0.1,0-0.2,0-1.9,0.9c0.8,0.9,1.8,1.7,3.2,1.8V11.9z M45.1,4.6c0,0,0.1,0.1,0.1,0.1c0,0,0,0-0.1,0
			c-0.2,0-0.3,0.1-0.5,0.3c-0.8,0.8-1.4,1.2-2.2,1.9l-0.1-0.1c0.8-0.8,1.8-2,2.2-2.7L45.1,4.6z M49.9,3.6C50,3.6,50,3.7,50,3.7
			c0,0-0.1,0.1-0.2,0.1h-6.4c-0.3,0-0.6,0-0.8,0.1l-0.3-0.4c0.3,0,0.6,0,0.9,0h5.5l0.5-0.6L49.9,3.6z M46.7,5.9
			c1.5,0.9,1.7,1.2,1.7,1.5c0,0.3-0.1,0.5-0.4,0.5c-0.1,0-0.2-0.1-0.3-0.3c0-0.1,0-0.2-0.1-0.3l-1.3,0.1C45,7.5,44.2,7.7,44,7.9
			c0,0,0,0,0,0c0,0-0.1,0-0.1-0.1l-0.3-0.6C44,7.1,44.2,7,44.5,6.7c0.6-0.6,1-1.2,1.5-1.9l0.5,0.5c0.1,0,0.1,0.1,0.1,0.1
			c0,0,0,0-0.1,0.1c-0.2,0-0.3,0.1-0.5,0.4c-0.4,0.4-1,0.9-1.7,1.4L47.6,7c-0.2-0.3-0.5-0.7-0.9-1L46.7,5.9z M45.1,1.9
			c1.1,0.4,1.6,0.7,1.6,1.2c0,0.3-0.2,0.5-0.3,0.5c-0.1,0-0.3-0.1-0.4-0.4C45.9,2.8,45.6,2.4,45,2L45.1,1.9z M47.4,4.2
			c0.9,0.4,2.1,1.2,2.1,2c0,0.3-0.2,0.5-0.3,0.5c-0.1,0-0.2,0-0.3-0.4c-0.3-0.7-0.8-1.4-1.5-1.9L47.4,4.2z"/>
		<path class="st1" d="M62.4,11.6c-0.7,0-1.3,0.3-1.4,0.6c0,0,0,0-0.1,0s0,0-0.1,0c-2.3-1-3.8-2.4-4.5-5h-1.9v4.6l2.5-1.1l0.1,0.2
			c-2.1,1.2-2.7,1.7-2.9,1.9c0,0.1-0.1,0.1-0.1,0.1s-0.1,0-0.1,0l-0.6-0.5c0.5-0.4,0.6-0.6,0.6-1V7.2h-1.7c-0.3,0-0.6,0-0.8,0.1
			L51,6.9c0.3,0,0.6,0,0.9,0h2V3.5c0-0.5,0-1.3,0-1.7l1,0.5c0.1,0,0.1,0.1,0.1,0.1c0,0,0,0.1-0.1,0.1l-0.4,0.3V7h6.2l0.6-0.8L62,7.1
			c0.1,0.1,0.1,0.1,0.1,0.1c0,0,0,0-0.1,0h-5.5c1.2,2.7,3,4.2,5.8,4.2V11.6z M60.2,3.1C60.3,3.1,60.3,3.2,60.2,3.1
			c0.1,0.1,0,0.1-0.1,0.1c-0.3,0-0.6,0.1-1.1,0.5c-1,0.7-2.5,1.6-3.7,2.4L55.2,6c1.9-1.4,3.2-2.5,4.2-3.6L60.2,3.1z"/>
		<path class="st1" d="M63.2,4.9c1.1,0.4,1.7,0.6,1.7,1.3c0,0.3-0.1,0.5-0.3,0.5c-0.1,0-0.2,0-0.3-0.4c-0.2-0.5-0.6-0.9-1.1-1.2
			L63.2,4.9z M66.5,4.5l-1.3,4c-0.2,0.6-0.3,1.1-0.3,1.6c0,0.3,0,0.6,0.1,1c0.1,0.4,0.1,0.7,0.1,0.9c0,0.4-0.1,0.6-0.4,0.6
			c-0.2,0-0.4-0.2-0.4-0.6c0-0.1,0-0.2,0-0.3c0.1-0.6,0.2-1,0.2-1.3c0-0.5,0-1-1.3-1.2l0-0.2c0.3,0,0.5,0,0.6,0c0.5,0,0.7-0.2,1-0.9
			l1.5-3.7L66.5,4.5z M64.3,2.3C65.4,2.7,66,3,66,3.5C66,3.8,65.8,4,65.7,4c-0.1,0-0.2-0.1-0.3-0.3c-0.2-0.5-0.5-0.8-1.1-1.3
			L64.3,2.3z M74,11.4c0.1,0.1,0.1,0.2,0.1,0.2c0,0-0.1,0.1-0.2,0.1h-7.2c-0.3,0-0.6,0-0.8,0.1l-0.3-0.4c0.3,0,0.6,0,0.9,0h3.2V3.8
			h-1.7c-0.3,0-0.6,0-0.8,0.1l-0.3-0.4c0.3,0,0.6,0,0.9,0H72l0.5-0.7l0.7,0.7c0.1,0.1,0.1,0.1,0.1,0.2s-0.1,0.1-0.2,0.1h-3v7.6h2.6
			l0.6-0.7L74,11.4z"/>
		<path class="st1" d="M79.2,9C79.2,9,79.3,9.1,79.2,9c0.1,0.1,0,0.1,0,0.1c-0.3,0.1-0.3,0.1-0.4,0.2c-2,2.1-2.5,2.5-3.5,3.1
			l-0.1-0.2c1.3-1.1,2.5-2.5,3.3-3.9L79.2,9z M86.1,4c0.1,0.1,0.1,0.1,0.1,0.1c0,0,0,0-0.1,0h-6.5l-1.9,3.2h3.2V6.8
			c0-0.8,0-1.1,0-1.5l0.9,0.4c0.1,0,0.1,0,0.1,0.1s0,0.1-0.1,0.1l-0.3,0.2v1.3h2.3l0.5-0.7L85,7.6c0.1,0.1,0.1,0.1,0.1,0.1
			c0,0,0,0-0.1,0h-3.6v4c0,0.8-0.2,1-1,1.3c0,0,0,0,0,0c0,0-0.1,0-0.1-0.1c-0.1-0.4-0.2-0.5-1.4-0.9l0-0.1c0.8,0.1,1.2,0.2,1.5,0.2
			c0.4,0,0.4-0.1,0.4-0.4v-4h-3.1L77.4,8c0,0-0.1,0.1-0.1,0.1c0,0,0,0-0.1,0l-0.6-0.6c0.6-0.2,0.6-0.3,0.8-0.6
			c0.5-0.7,1-1.6,1.5-2.5h-2.4c-0.3,0-0.6,0-0.8,0.1l-0.3-0.4c0.3,0,0.6,0,0.9,0H79c0.4-0.8,0.8-1.5,1.1-2.1l0.7,0.6
			c0,0,0.1,0.1,0.1,0.1s0,0-0.1,0.1l-0.5,0.2L79.7,4h5l0.6-0.8L86.1,4z M82.4,8.7c2.4,1.4,3.2,2.1,3.2,2.9c0,0.3-0.1,0.5-0.3,0.5
			c-0.1,0-0.2-0.1-0.4-0.6c-0.3-0.6-1-1.5-2.5-2.7L82.4,8.7z"/>
		<path class="st1" d="M98.3,12.1c-0.5,0.1-0.7,0.3-0.9,0.6c-0.1,0.1-0.1,0.1-0.2,0.1c-1.9,0-3.8-0.1-5.1-0.2
			c-1.3-0.1-2.2-0.6-2.7-1.7c-0.1-0.2-0.1-0.3-0.2-0.3c-0.2,0-1,1.2-1.2,1.9c0,0.1,0,0.1-0.1,0.1c0,0-0.1,0-0.1,0l-0.6-0.3l1.9-1.8
			V6.7h-0.9c-0.2,0-0.5,0-0.6,0.1l-0.3-0.4c0.4,0,0.6,0,0.8,0h0.9L89.1,6l0.8,0.6c0,0,0.1,0.1,0.1,0.1c0,0,0,0.1-0.1,0.1l-0.3,0.2
			v3.5c0,0.8,0.9,1.8,2.7,1.8c0.4,0,0.8,0,1.2,0c1.4,0,2.9-0.1,4.8-0.2V12.1z M88.1,2.6c0.5,0.3,1.6,1,1.6,1.6
			c0,0.3-0.3,0.6-0.4,0.6c-0.1,0-0.2-0.1-0.3-0.4c-0.1-0.4-0.5-1.2-1-1.7L88.1,2.6z M93.9,4.5C93.9,4.5,93.9,4.6,93.9,4.5
			c0.1,0.1,0,0.2,0,0.2h-1.5v1.8l1.4-0.7l0.1,0.2l-1.4,0.9v2.9c0,0.8-0.1,1-0.7,1.3c0,0,0,0-0.1,0c0,0-0.1,0-0.1-0.1
			c-0.1-0.4-0.4-0.6-1.1-0.8V10c0.5,0.1,0.8,0.2,1.1,0.2c0.4,0,0.4-0.2,0.4-0.5V7.2c-0.9,0.6-1.1,0.8-1.2,0.9c0,0-0.1,0.1-0.1,0.1
			c0,0-0.1,0-0.1-0.1l-0.4-0.4l1.8-1V4.6h-0.5c-0.3,0-0.6,0-0.8,0.1l-0.3-0.4c0.3,0,0.6,0,0.9,0h0.7V3.5c0-0.5,0-1.3,0-1.7l0.8,0.4
			c0,0,0.1,0,0.1,0.1c0,0,0,0.1-0.3,0.2v1.8h0.5l0.4-0.5L93.9,4.5z M98.1,5.6c0.1,0.1,0.1,0.1,0.1,0.1s0,0-0.1,0h-1.4v3.1
			c0,0.9,0,1.7,0,2.1V11c0,0.2,0,0.2-0.3,0.3c-0.1,0-0.2,0.1-0.2,0.1c-0.1,0-0.1-0.1-0.1-0.3V11c0-0.7,0-1.5,0-2.2V5.7h-1.3
			c0,3.5-0.3,4.3-2.2,5.8l-0.1-0.1c1.8-1.6,1.8-2.5,1.8-6.2c0-0.8,0-1.5,0-2.5l0.6,0.6c0.8-0.3,1.5-0.6,2.2-1.1l0.6,0.5
			c0,0,0.1,0.1,0.1,0.1c0,0,0,0-0.1,0c0,0-0.2,0-0.2,0c-0.1,0-0.3,0-0.6,0.1c-0.6,0.2-1.2,0.3-2,0.5v2h2.3l0.4-0.6L98.1,5.6z"/>
		<path class="st1" d="M103.7,5.3C103.7,5.4,103.8,5.4,103.7,5.3c0.1,0.1,0,0.1,0,0.1c-0.2,0-0.4,0.2-0.5,0.6c-0.9,2.6-2.2,4.5-4,6
			L99,11.9c1.9-2,3-3.9,3.6-6.3h-2.3c-0.3,0-0.6,0-0.8,0.1l-0.3-0.4c0.3,0,0.6,0,0.9,0h2.5l0.4-0.5L103.7,5.3z M110.2,11.2
			c-0.1,0-0.3,0-0.4,0c-0.4,0-0.7,0.1-0.9,0.3c0,0-0.1,0.1-0.1,0.1c0,0-0.1,0-0.1,0c-2.1-2-3.1-3.7-3.9-7.5v7.6
			c0,0.9-0.1,1.2-0.9,1.5c0,0,0,0-0.1,0c0,0-0.1,0-0.1-0.1c0-0.3-0.3-0.6-1.5-0.9l0-0.2c0.8,0.2,1.2,0.2,1.5,0.2
			c0.4,0,0.4-0.2,0.4-0.5V3.5c0-0.5,0-1.3,0-1.8l1,0.5c0,0,0.1,0,0.1,0.1c0,0,0,0-0.1,0.1l-0.4,0.2v0.6c0.3,1.1,0.6,2.3,1.1,3.3
			c0.6-0.6,1.6-1.7,2.4-2.6l0.7,0.7c0.1,0.1,0.1,0.1,0.1,0.1c0,0,0,0-0.2,0c-0.2,0-0.4,0-0.6,0.2L106,6.8c1.2,2.8,2.7,3.9,4.2,4.3
			V11.2z"/>
	</g>
</g>
</svg>
