<?xml version="1.0" encoding="utf-8"?>
<!-- Generator: Adobe Illustrator 21.0.0, SVG Export Plug-In . SVG Version: 6.00 Build 0)  -->
<svg version="1.1" id="图层_1" xmlns="http://www.w3.org/2000/svg" xmlns:xlink="http://www.w3.org/1999/xlink" x="0px" y="0px"
	 viewBox="0 0 952 527.9" style="enable-background:new 0 0 952 527.9;" xml:space="preserve">
<style type="text/css">
	.st0{fill:#656C6D;}
	.st1{fill:#FFFFFF;}
	.st2{fill:#EDDB8D;}
</style>
<title>logo</title>
<g id="レイヤー_2">
	<g id="page-1">
		<g id="ロゴ">
			<path class="st0" d="M610.6,36.3C553.1,2.5,484.9-8.2,419.7,6.4c34.7,1.4,68.5,11.4,98.4,29c101,59.3,134.9,189.2,75.6,290.2
				s-189.2,134.9-290.2,75.6c-39.1-22.9-69.9-57.8-87.7-99.5c11.4,79.4,58.4,149.3,127.7,189.9c125.7,73.7,287.4,31.6,361.2-94.1
				S736.4,110,610.6,36.3z"/>
			<g id="タイトル">
				<path class="st1" d="M172.8,417.6l-0.3-0.1c-18.6-5.1-31.9-12-43.2-21.2c-1-0.9-1.2-1.6-0.3-2.5c12.4-13.3,20.6-28.6,26.6-45.5
					c0.3-0.6,0.8-1,1.5-1.2c1.1,0,2.1-0.3,3.1-0.7c1.8-0.7,1.6-2.8,0-4.5l-5.4-5c-1.3-1.5-3.5-1.6-4.9-0.4c-0.1,0.1-0.3,0.2-0.4,0.4
					l-2.6,2.6c-0.3,0.4-0.7,0.6-1.2,0.6h-1.2c0.4,1.3,0.6,2.6,0.6,4c0,0.7-0.1,1.5-0.2,2.2c0.6,0.4,0.8,1,0.4,2.1
					c-4.8,14.6-12.3,28.1-22.3,39.8c-0.9,1-1.6,1.2-2.5,0.1c-7.4-7.9-13.6-16.9-18.3-26.6c-0.3-0.6-0.2-1.3,0.3-1.8
					c3.1-4.3,5.7-8.4,8.6-13c0.3-0.5,0.8-0.9,1.5-0.9h4.3c-0.1-0.7-0.1-1.3-0.2-2c0-1.4,0.2-2.8,0.6-4.1c-1.5-0.3-1.9-1-1-2.7l4-8.1
					c0.3-0.6,0.8-1,1.5-1.2c1.2-0.2,2.3-0.7,3.2-1.3c1.3-1.3,0.4-3.2-1.6-4l-5.9-2.2h49.2c1.4,0.1,2.7-0.4,3.7-1.3l0.1-0.3
					c0.7-1,0.5-2.3-0.5-3c0,0-0.1-0.1-0.1-0.1l-0.3-0.3c-2.8-2.6-5.6-5.1-8.6-7.5c-1.6-1.3-3.9-1.1-5.2,0.5c0,0,0,0,0,0l-4.3,5.1
					c-0.4,0.4-0.7,0.7-1.3,0.7h-40c-1.3,0-1.8-0.4-1.8-1.8v-11.1c0-1,0.6-1.5,1.5-1.9c1-0.3,2-0.9,2.8-1.7c1.2-1.8-0.2-3.2-2.5-3.8
					H110l-6.2-0.6c-2.8-0.3-4.3,1-4.3,3.8v15.4c0,1.3-0.4,1.8-1.8,1.8h-13L44.2,377c4.9-4,9.4-8.4,13.7-13c2-2.2,3.1-1.8,3.1,1.2v18
					c3.2,0.7,6.1,2.1,8.6,4v-29.5c0-0.9,0.5-1.6,1.3-1.9c0.7-0.3,1.3-0.7,1.9-1.2l0.3-0.3c1-1.2,0.2-2.6-1.6-3.4l-1.3-0.6
					c-0.7-0.3-0.9-0.7-0.3-1.3c4.7-6.4,8.8-13.2,12.4-20.2c0.4-0.6,1.1-0.9,1.8-1c1.1,0,2.2-0.3,3.1-0.9l0.3-0.3
					c1.3-1.2,0.6-3.2-1.5-4.1l-2.5-1.2c-1.6-0.9-1.6-0.9,0.2-0.9h29.7c-0.6,0.5-1.1,1.3-1.3,2c-8.8,23.4-21.8,43.8-35.2,56.8
					l-0.2,0.3c-0.6,0.8-0.6,1.8-0.1,2.6l0.3,0.3c0.8,0.7,2.1,0.7,2.9,0c6.1-4.8,11.7-10.1,16.8-16c1.2-1.6,2.2-1.3,2.9,0.4
					c4.2,9.7,9.6,18.8,16.3,27.1c0.6,0.5,0.6,1.4,0.1,1.9c-0.1,0.1-0.2,0.2-0.3,0.3c-12.1,11.7-26.4,20.9-42,27.1
					c-1.5,0.6-1.8,1.6-1,2.8c0.6,1,1.8,1.5,2.9,1.2H76c18.2-6.3,33.1-14.8,44.8-25.3c0.5-0.6,1.4-0.7,2-0.2c0.1,0.1,0.2,0.2,0.3,0.4
					c10.4,10.1,22.9,18.3,39.3,24.6c2.2,0.9,3.8-0.1,5.4-1.9l0.1-0.3c1.1-1.6,2.7-2.7,4.5-3.2c0.9-0.2,1.6-1,1.8-1.9
					C174.3,418.8,173.9,418,172.8,417.6z"/>
				<path class="st1" d="M61,424.3v3c0,0.6,0.4,1,1,1h0.9c2.2-0.2,4.3-1,6-2.5l0.4-0.7l0.1-0.3c0.1-0.2,0.2-0.5,0.2-0.7v-3.8
					C67.1,422.2,64.1,423.6,61,424.3z"/>
				<path class="st1" d="M313.7,351.7c-0.6-0.3-1-0.9-1-1.6l-0.6-14.2c0-0.7-0.6-1.3-1.3-1.3c0,0,0,0,0,0c-0.8,0-1.5,0.5-1.6,1.3
					l-0.3,1.5c-1.2,6-2.2,11.9-3.2,14.1c-0.3,0.6-0.9,0.9-2,1h-0.3c-2.4,0.4-7.3,0.3-13.2,0.3h-14.1c-5.1,0-5.4-0.3-5.4-1.8v-29.4
					c0-1.3,0.4-1.8,1.8-1.8h2.9c-1.3-1.8-2-3.8-2.2-6h-16.4c-1.3,0-1.8-0.4-1.8-1.8v-10.7c0-1,0.6-1.5,1.5-1.9
					c1.1-0.3,2-0.9,2.8-1.8c1.2-1.8-0.1-3.2-2.5-3.8h-0.3l-6.1-0.6c-2.8-0.3-4.3,1-4.3,3.8V312c0,1.3-0.4,1.8-1.8,1.8h-38.2
					c-1,0-1.6-0.4-1.8-1.3c-0.2-1.9-0.5-3.7-0.9-5.6c-0.2-1-1.1-1.8-2.2-1.8c-0.9,0-1.7,0.7-1.8,1.6c0,0,0,0.1,0,0.1
					c0,11.1-5,20.8-10.3,24.9c-2.9,2.2-5,5.7-2.8,8.8s7.2,1.9,10.7-1.2s6.7-9.1,7.5-18c0.1-1.2,0.6-1.6,1.8-1.6h24.3
					c1.6,0,2.1,0.6,1.8,2c-4.7,21.8-16.6,34.7-43.1,44.5c-0.9,0.2-1.5,1.2-1.3,2.1c0,0.1,0.1,0.3,0.1,0.4c0.4,1.5,1.3,1.9,2.3,1.5
					h0.3c31.5-8.2,46.3-22.3,51.9-49.1c0.1-0.9,0.9-1.5,1.8-1.5h15.7c1.3,0,1.8,0.4,1.8,1.8v30.9c0,6.9,2.3,9.1,12.9,9.1H290
					c22.3,0,26.4-1.5,26.4-5.9C316.4,353.9,315.4,352.3,313.7,351.7z"/>
				<path class="st1" d="M315.8,316.3l-6.1-6c-1.8-1.6-3.5-1.6-5.4,0.1l-2.8,2.8c-0.3,0.4-0.7,0.6-1.2,0.6h-2.1
					c-0.2,2.2-1,4.2-2.2,6h0.9c1.9,0,2.5,0.7,1.5,2.6c-2.5,4.7-5.6,9.8-8.5,14.2v0.3c-0.6,0.7-0.4,1.5,0.6,1.9
					c0.8,0.5,1.9,0.4,2.6-0.1c6.8-5,13-10.7,18.5-17c0.2-0.4,0.6-0.6,1-0.6c1.2-0.1,2,0,2.8-0.4h0.3
					C317.4,320.1,317.4,318,315.8,316.3z"/>
				<path class="st1" d="M316.8,417.5l-0.3-0.3c-2.7-2.6-5.5-5-8.5-7.3c-1.8-1.3-3.5-1.2-5.3,0.6l-4.3,5c-0.4,0.4-0.7,0.7-1.3,0.7
					h-40.4c-1.3,0-1.8-0.4-1.8-1.8v-30.9c0-1.3,0.4-1.8,1.8-1.8h46.1c1.2,0,2.4-0.4,3.4-1.2c1-1.2,0.4-2.9-0.7-4
					c-2.8-2.5-5.7-4.7-7.9-6.3c-1.5-1.3-3.9-1.2-5.2,0.4c0,0,0,0-0.1,0.1c-1.3,1.6-2.6,2.9-3.8,4.2c-0.3,0.4-0.8,0.7-1.3,0.7h-41.2
					v38.7c0,1.3-0.4,1.8-1.8,1.8h-57.6c-2,0-2.8,1.2-2,3.2c0.2,1.7,1.8,2.9,3.5,2.8h125.5c1.4,0.1,2.8-0.4,3.7-1.5
					C318.2,419.6,317.9,418.2,316.8,417.5C316.8,417.5,316.8,417.5,316.8,417.5z"/>
				<path class="st1" d="M510.4,393.6c-0.9-0.5-1.9-0.5-2.8-0.1c-1.2,0.4-1.3,1-0.9,1.9l0.3,0.3c4.1,6.3,8.6,14.9,9.8,22
					c0,1,0.5,1.9,1.3,2.5c3.8,2.2,7.2-0.6,7.2-5.7C525.4,409.1,521.7,401,510.4,393.6z"/>
				<path class="st1" d="M502.1,396.4l-5.7-2.5c-2.3-1-4.5,0-5.3,2.6c-3.2,10-8.2,19.3-14.8,27.5c-0.7,0.8-0.7,2.1,0,2.9
					c0.5,0.8,1.6,1,2.4,0.5c0.1-0.1,0.1-0.1,0.2-0.2c8.9-6.9,16-16.8,19.9-25.3c0.4-0.6,0.9-1,1.6-1.2c0.9-0.1,1.7-0.4,2.5-0.7
					l0.3-0.1C504.6,398.7,504,397.1,502.1,396.4z"/>
				<path class="st1" d="M526,302.6l-5.4-4.3c-1.8-1.2-3.8-1-5,0.6l-1.5,1.9c-0.4,0.4-0.7,0.7-1.3,0.7h-18.5c-0.3,0-0.6,0-0.9-0.1
					l-4.3-2c-2.9-1.5-5-0.3-5,3.2v57.6h9.8h0.1h18c1.3,0,1.8,0.4,1.8,1.8v17.9c0,1.3-0.4,1.8-1.8,1.8h-28V394c0,0.4,0.1,0.7,0.3,1
					c0.1,0.4,0.5,0.8,0.9,0.9h0.3c0.2,0.1,0.4,0.2,0.6,0.1c3.5-0.4,6.1-2.5,6.1-3.5v-3.1c0-1.3,0.4-1.8,1.8-1.8h18
					c1.3,0,1.8,0.4,1.8,1.8v2.9c0,0.3,0,0.6,0.2,0.9l0.1,0.3c0.1,0.4,0.5,0.6,0.9,0.6l0.3,0.1h0.3c3.4,0,6.6-2.8,6.6-3.5v-36.6h-9.7
					c-0.2,0-0.3,0-0.5,0h-18c-1.3,0-1.8-0.4-1.8-1.8v-17c0-1.3,0.4-1.8,1.8-1.8h18h0.2h9.9V310c0-0.9,0.6-1.7,1.5-1.9l2-0.6
					C528.2,306.4,527.8,304.3,526,302.6z M514,325.8c0,1.3-0.4,1.8-1.8,1.8h-18c-1.3,0-1.8-0.4-1.8-1.8v-16.4c0-1.3,0.4-1.8,1.8-1.8
					h18c1.3,0,1.8,0.4,1.8,1.8V325.8z"/>
				<path class="st1" d="M605.6,318l-5.1-4c-1.9-1.3-3.5-1.2-4.8,0.4l-0.2,0.3l-1.5,1.6c-0.3,0.4-0.8,0.6-1.3,0.6h-9.7
					c-2.8,0-3.2-1-1.2-3.1c3.4-3.7,6.4-7.6,9.1-11.9c0.2-0.6,0.7-0.9,1.3-1c1.1-0.2,2.2-0.6,3.1-1.3c1.6-1.5,0.6-3.5-1.9-4.1
					L587,294c-2.2-0.6-4,0.1-4.7,2.5c-2.4,6.8-5.4,13.4-9.1,19.6c-0.4,0.6-0.7,0.9-1.5,0.9h-15.5c1.5-0.6,2.3-2.5,2.3-5.3
					c0-4.8-3.8-12-15.2-17.3c-0.9-0.4-1.9-0.3-2.8,0.1c-0.7,0.4-0.9,1.3-0.5,2c0,0.1,0.1,0.1,0.2,0.2c4.4,5.3,7.7,11.3,9.7,17.9v0.3
					c0.2,0.8,0.6,1.5,1.3,2h-10.1c-0.3,0-0.6,0-0.9-0.1l-4.3-2c-2.9-1.5-5-0.1-5,3.4v25.1h10h0.2H560c1.3,0,1.8,0.4,1.8,1.8v10.1
					c0,1.3-0.4,1.8-1.8,1.8h-18.8c-0.2,0-0.3,0-0.5,0h-9.6v10.3c0,0.4,0.1,0.7,0.3,1c0.1,0.4,0.5,0.8,0.9,0.9h0.3
					c0.2,0.1,0.4,0.2,0.6,0.1c3.7-0.4,6.3-2.5,6.3-3.5v-1.5c0-1,0.3-1.3,1.3-1.3h51.4c1.3,0,1.8,0.4,1.8,1.8v1.3
					c0,0.3,0,0.6,0.2,0.9l0.2,0.3c0.1,0.4,0.5,0.6,0.9,0.6l0.3,0.1h0.3c3.7,0,6.7-2.5,6.7-3.5V325c0-1,0.6-1.5,1.5-1.8
					c0.7-0.2,1.3-0.5,1.9-0.9C607.5,321.4,607.2,319.2,605.6,318z M561.7,335.4c0,1.3-0.4,1.8-1.8,1.8h-18.8c-1.3,0-1.8-0.4-1.8-1.8
					v-10.7c0-1.3,0.4-1.8,1.8-1.8h18.8c1.3,0,1.8,0.4,1.8,1.8V335.4z M593.9,355c0,1.3-0.4,1.8-1.8,1.8h-20.4
					c-1.3,0-1.8-0.4-1.8-1.8v-10c0-1.3,0.4-1.8,1.8-1.8h20.4c1.3,0,1.8,0.4,1.8,1.8L593.9,355z M593.9,335.4c0,1.3-0.4,1.8-1.8,1.8
					h-20.4c-1.3,0-1.8-0.4-1.8-1.8v-10.7c0-1.3,0.4-1.8,1.8-1.8h20.4c1.3,0,1.8,0.4,1.8,1.8L593.9,335.4z"/>
				<path class="st1" d="M585.5,392.2h-0.2h-36.2c-1.3,0-1.8-0.4-1.8-1.8v-10c0-1.3,0.4-1.8,1.8-1.8h48.8c0.4-0.1,0.7-0.3,1-0.6
					c1.6-1.2,1.2-3.2-0.4-4.5l-5-3.8c-1.8-1.2-3.1-1-4.5,0.4l-1.5,1.8c-0.3,0.4-0.8,0.6-1.3,0.6h-36.9c-0.3,0-0.6,0-0.9-0.1l-4.4-2
					c-2.9-1.3-5.1,0-5.1,3.5v52.7c0,0.4,0.1,0.7,0.3,1c0.2,0.4,0.6,0.6,0.9,0.7h0.2c0.2,0.1,0.4,0.2,0.6,0.1c4-0.4,6.6-2.8,6.6-3.5
					v-4.4c0-1.3,0.4-1.8,1.8-1.8h36.2c1.3,0,1.8,0.4,1.8,1.8v4.8c0,0.3,0,0.6,0.2,0.9l0.1,0.3c0.1,0.4,0.5,0.6,0.9,0.6l0.3,0.1h0.3
					c3.5,0,6.7-2.8,6.7-3.5v-31.6H585.5z M587,411c0,1.3-0.4,1.8-1.8,1.8h-36.1c-1.3,0-1.8-0.4-1.8-1.8v-10.8c0-1.3,0.4-1.8,1.8-1.8
					h36.2c1.3,0,1.8,0.4,1.8,1.8L587,411z"/>
				<path class="st1" d="M794.7,420.5v6.6c0,0.6,0.4,1,1,1c0.1,0,0.1,0,0.2,0h0.9c3.1,0,6.6-2.3,6.6-4.1v-9.3
					C801.2,417.6,798.1,419.6,794.7,420.5z"/>
				<path class="st1" d="M870,415.7c-3.2,0-13.6-1.2-20.7-1.9c-1.1-0.3-2.2,0.4-2.4,1.4c0,0.2-0.1,0.3-0.1,0.5v0.3
					c0.1,1.3,1.1,2.3,2.3,2.5c5.7,0.7,11.1,2.2,13.2,3.2l0.3,0.3c0.7,0.6,1.3,1.5,1.8,2.4l5.7-8.7L870,415.7z"/>
				<path class="st1" d="M844.8,305.1c0.3-0.9,0.6-1.7,0.9-2.6c0.3-0.6,0.8-1,1.5-1.2c1-0.3,2-0.7,2.9-1.3c1.6-1.5,0.6-3.5-1.8-4.1
					l-6.5-1.9c-2.5-0.7-4.2,0.1-4.8,2.8c-0.1,0.5-0.3,1-0.4,1.5C840.3,299.1,843.4,301.6,844.8,305.1z"/>
				<path class="st1" d="M902.2,323.7l-5.3-4.5c-1.9-1.6-3.5-1.5-5.6,0.6l-1.9,2c-0.3,0.5-0.9,0.7-1.5,0.7h-47.6
					c-2,0-2.5-0.7-1.7-2.5c-1.4,0.6-3,0.9-4.5,0.9c-1.8,0-3.5-0.4-5.1-1.2c-1.3,2.8-2.6,5.6-4,8.2c0.1-1-0.3-2-1.1-2.6
					c-2.8-2.4-5.1-4.7-7.3-6.3c-2-1.6-3.8-1.5-5.6,0.4c-1.2,1.6-2.3,2.9-3.4,4.2c-0.3,0.5-0.9,0.7-1.5,0.7h-1.3
					c-1.3,0-1.8-0.4-1.8-1.8v-21.1c0-1,0.6-1.5,1.5-1.9c0.9-0.2,1.7-0.7,2.3-1.3l0.2-0.3c1.3-1.9,0-3.8-2.6-4.1l-5.7-0.6
					c-2.8-0.3-4.2,1-4.2,3.8v25.5c0,1.3-0.4,1.8-1.8,1.8h-5.4c-1.6,0-2.2-0.7-1.8-2.4c1-4,1.9-7.6,2.6-11.7c0.2-0.7,0.8-1.3,1.5-1.5
					c0.9-0.1,1.7-0.6,2.3-1.2l0.3-0.3c1-1.8,0-3.5-2.3-4l-5.7-1.2c-2.6-0.6-4.2,0.6-4.5,3.5c-1.9,16.5-5.6,33.1-10.7,45.5
					c-0.5,0.9-0.2,2,0.7,2.6c0.1,0,0.1,0.1,0.2,0.1h0.3c0.7,0.6,1.8,0.4,2.3-0.3c0.1-0.1,0.1-0.2,0.2-0.3c4.1-6.9,7.5-14.2,10-21.8
					c0.2-0.7,0.9-1.2,1.6-1.2h8.5c1.3,0,1.8,0.4,1.8,1.8v31.9c0,0.7-0.5,1.4-1.2,1.6c-8.2,2.8-15.1,5.1-20.4,6.7
					c-2.9,0.7-3.7,2.9-2.5,5.4l2.8,5.7c0.6,1.5,1.6,1.9,2.9,1.3c0.3-0.2,0.5-0.4,0.6-0.7l0.7-1.5c0.2-0.3,0.4-0.6,0.7-0.7
					c4.7-2.2,9.4-4.5,13.6-6.7c1.9-0.9,2.6-0.3,2.6,1.6v13c3.4,0.9,6.5,2.9,8.6,5.7V371c0-0.7,0.4-1.3,1-1.6l14.8-7.4l4.8-2.3
					c1-0.4,1.6-1.4,1.3-2.5c0-0.2,0-0.4-0.2-0.6c-0.5-0.8-1.4-1.2-2.3-1h-0.3l-7.5,2.8l-9.4,3.4c-1.6,0.6-2.3,0-2.3-1.6v-27.9
					c0-1.3,0.4-1.8,1.8-1.8h16.3c1.1,0,2.2-0.3,3.1-1.1c-3.9,7.2-8.5,14-13.8,20.3c-0.7,0.7-0.7,1.8,0,2.5c0.1,0.1,0.1,0.1,0.2,0.2
					c1.2,0.9,2,0.9,2.9,0.1l0.3-0.1c7.8-6.4,14.4-14.1,19.5-22.8c0.3-0.6,0.8-0.9,1.5-0.9h10.8c1.6,0,2,0.6,1.6,2.2
					c-5.7,22.8-18,43.4-35.2,59.5c-0.7,0.7-0.9,1.9-0.3,2.8l0.3,0.3c0.7,0.5,1.7,0.6,2.5,0.1l0.4-0.1c21.1-15.7,35.3-37.8,42.5-63.4
					c0.2-0.8,0.9-1.4,1.8-1.3h8c1.5,0,1.9,0.6,1.8,2c-5.1,33.5-18.6,63.4-44.3,86.4c-0.8,0.6-0.9,1.8-0.3,2.5
					c0.1,0.1,0.2,0.2,0.3,0.3c0.7,0.7,1.8,0.8,2.6,0.3l0.4-0.1c29.7-22,45-53.2,51.3-89.9c0.1-0.9,0.9-1.5,1.8-1.5h7.2
					c1.3,0,1.9,0.6,1.8,1.9c-1.5,27.4-3.8,50.7-7,65.8l11.5-17.4c1.7-13.7,3-29.9,4-48c0-1,0.6-1.5,1.5-1.8c0.7-0.1,1.4-0.3,2-0.6
					l0.3-0.1C904.1,327.1,903.8,325.2,902.2,323.7z"/>
				<path class="st2" d="M378.9,416.4c2.6-6.8,7.3-10.6,14.4-10v10c-4.6-0.2-8.2,1.9-12,7.4c-2.9,4.4-7,5.4-12.2,4.8v-3.9
					C373.4,425.4,375.7,424.2,378.9,416.4z M397.4,328.2l16.3,7.4V400l-16.3,16.4V328.2z"/>
				<path class="st2" d="M649.1,394.6v-73.4l18,8V380c-11,2.2-14,6.2-14,14.6L649.1,394.6z M685.5,418.1c2.8-7.7,6.5-11.2,10.8-10.8
					v11c-3.2-0.4-5.5,2.9-8.3,8c-2.6,4.8-5.9,5.9-11,5.3v-4.2C680.5,427.8,682.6,426.6,685.5,418.1z M700.8,321l17.8,8v71.2
					l-17.8,18V321z"/>
				<path class="st1" d="M952,285.6l-4.5,7.5l-4.5,7.5l-9.1,14.9c-6.1,9.9-12.3,19.8-18.4,29.6c-6.2,9.9-12.4,19.6-18.6,29.5
					L878,403.8l-19,29.2c-6.4,9.7-12.7,19.5-19.2,29.1s-12.9,19.3-19.4,29l-9.8,14.4l-4.9,7.2l-5,7.2l4.5-7.5l4.5-7.5l9.1-14.9
					c6.1-9.9,12.2-19.8,18.4-29.6c6.2-9.9,12.4-19.6,18.6-29.5l18.8-29.3l19-29.2c6.4-9.7,12.7-19.5,19.2-29.1s12.9-19.3,19.4-29
					l9.8-14.4l4.9-7.2L952,285.6z"/>
				<path class="st1" d="M151.3,212.4l-4.5,7.5l-4.5,7.4l-9.1,14.9c-6.1,9.9-12.3,19.8-18.4,29.6c-6.2,9.9-12.4,19.6-18.6,29.5
					l-18.8,29.3l-19,29.2c-6.4,9.7-12.7,19.5-19.2,29.1s-12.9,19.3-19.4,29l-9.8,14.4L5,439.5l-5,7.2l4.5-7.5l4.5-7.5l9.1-14.9
					c6.1-9.9,12.3-19.8,18.4-29.6c6.2-9.9,12.4-19.6,18.6-29.5L74,328.4l19-29.2c6.4-9.7,12.7-19.5,19.2-29.1s12.9-19.3,19.4-29
					l9.8-14.4l4.9-7.2L151.3,212.4z"/>
			</g>
		</g>
	</g>
</g>
</svg>
